<?xml version="1.0" encoding="UTF-8"?>
<svg width="102px" height="93px" viewBox="0 0 102 93" version="1.1" xmlns="http://www.w3.org/2000/svg" xmlns:xlink="http://www.w3.org/1999/xlink">
    <!-- Generator: sketchtool 59.1 (101010) - https://sketch.com -->
    <title>00D8D2DD-B1FE-49E0-AF8B-4E19A607FE2C</title>
    <desc>Created with sketchtool.</desc>
    <g id="Page-1" stroke="none" stroke-width="1" fill="none" fill-rule="evenodd">
        <g id="landing_2" transform="translate(-1057.000000, -1316.000000)">
            <g id="icon/dlaUbezpieczonych" transform="translate(1057.000000, 1316.000000)">
                <path d="M87,42.4998627 C87,65.9714322 67.9714755,85 44.5000588,85 C21.0285637,85 2,65.9714322 2,42.4998627 C2,19.0284894 21.0285637,0 44.5000588,0 C67.9714755,0 87,19.0284894 87,42.4998627 Z" id="Fill-1" fill="#E9EAEB"></path>
                <polygon id="Fill-2" fill="#BCC0C4" points="20 18 23 18 23 15 20 15"></polygon>
                <polygon id="Fill-3" fill="#BCC0C4" points="20 25 23 25 23 22 20 22"></polygon>
                <polygon id="Fill-4" fill="#BCC0C4" points="17 21 20 21 20 18 17 18"></polygon>
                <polygon id="Fill-5" fill="#BCC0C4" points="23 21 26 21 26 18 23 18"></polygon>
                <polygon id="Fill-6" fill="#BCC0C4" points="4 64 7 64 7 61 4 61"></polygon>
                <polygon id="Fill-7" fill="#BCC0C4" points="4 70 7 70 7 67 4 67"></polygon>
                <polygon id="Fill-8" fill="#BCC0C4" points="0 67 3 67 3 64 0 64"></polygon>
                <polygon id="Fill-9" fill="#BCC0C4" points="7 67 10 67 10 64 7 64"></polygon>
                <path d="M44.9998036,28 C38.8717881,28 27,31.318585 27,37.7502204 L27,57.382484 C27,61.1688066 29.7327042,63.7493779 33.5454438,63.7493779 L35.1817753,63.7493779 L35.1817753,93 L54.8179498,93 L54.8179498,63.7493779 L56.4544383,63.7493779 C60.2670208,63.7493779 63,61.1688066 63,57.382484 L63,37.7502204 C63,31.318585 51.1282904,28 44.9998036,28 Z" id="Fill-10" fill="#A8D2F0"></path>
                <path d="M45.5762045,26 C51.2216888,26.0360016 57.1344657,27.7652777 61.2171067,30.9354172 C63.2459587,32.5106865 64.9206285,34.7787863 64.9794641,37.5661089 C65.0254415,44.2676038 64.9798537,50.9694987 64.9798537,57.6710735 C64.9556961,62.0342255 61.4707619,65.9731988 56.8671731,66 L55.2388704,66 L55.2388704,62.6665333 C57.3585083,62.6665333 59.649198,62.4373632 60.8465597,60.7111673 C61.4399804,59.8550496 61.7154554,58.7897227 61.7325995,57.7383965 C61.7696152,51.0303013 61.7785769,44.3220062 61.7325995,37.613711 C61.682336,35.2324062 59.4489234,33.5715331 57.7407445,32.5810896 C52.5577621,29.5761574 46.2245644,28.7621215 40.8241632,29.8597698 C37.1347852,30.6098028 33.2758362,31.7990552 30.6841502,34.5407758 C29.9030013,35.3672122 29.2883063,36.4336591 29.2634473,37.613711 C29.2173529,44.3220062 29.2263536,51.0303013 29.2634862,57.7383965 C29.3063076,60.3575917 31.3389391,62.6502126 34.138147,62.6665333 L35.7570206,62.6665333 L35.7570206,66 L34.1289126,66 C29.9199116,65.9754789 26.0934585,62.4730448 26.0166217,57.7758781 C25.979567,51.0711031 26.0160372,44.3660081 26.0160372,37.6613131 C26.0448705,33.4695287 30.1278232,30.2877887 33.4490699,28.7525211 C37.1595273,27.0368456 41.2052305,26.0636028 45.2613759,26.0016001 C45.3661889,26.0004 45.4713915,26 45.5762045,26 Z" id="Fill-11" fill="#295183"></path>
                <path d="M44.999808,23 C49.4672283,23 53,19.163522 53,14.4296081 L53,11.5703919 C53,6.83849379 49.4672283,3 44.999808,3 C40.5327717,3 37,6.83849379 37,11.5703919 L37,14.4296081 C37,19.163522 40.5327717,23 44.999808,23 Z" id="Fill-12" fill="#FFFFFF"></path>
                <path d="M45.0689995,2.00008579 C50.2865277,2.04820904 54.9441787,6.36358797 54.994132,11.6169603 C55.0005261,13.8397459 55.0920406,16.0789007 54.2456309,18.076705 C52.3054426,22.6562752 46.2411051,25.2662115 41.3097097,23.3818497 C37.6398963,21.9794277 35.0756906,18.372112 35.0137085,14.5021277 C34.992768,12.2957113 34.901773,10.0805393 35.7162925,8.08996794 C37.144439,4.59990143 40.8365515,2.06229417 44.873582,2.00062415 C44.9387211,2.00008579 45.0038603,1.99986279 45.0689995,2.00008579 Z M44.9599014,5.17240862 C41.4811496,5.20441993 38.3764086,8.14592778 38.3432796,11.636375 C38.3340881,14.2268966 38.3593446,16.9072586 40.0424929,18.7390867 C42.3603287,21.2607054 46.9176733,21.5138571 49.5168464,19.1814359 C50.8679848,17.9685921 51.6468575,16.2224168 51.6640415,14.4214237 C51.6692366,12.6036807 51.8374795,10.773756 51.1573146,9.168432 C50.1682381,6.83372673 47.6561837,5.16368726 44.9599014,5.17240862 Z" id="Fill-13" fill="#295183"></path>
                <polygon id="Fill-14" fill="#295183" points="53 93 56 93 56 44 53 44"></polygon>
                <polygon id="Fill-15" fill="#295183" points="34 93 37 93 37 44 34 44"></polygon>
                <polygon id="Fill-16" fill="#295183" points="44 93 47 93 47 62 44 62"></polygon>
                <path d="M67.6357433,36 L52,42.7025913 L52.1010729,60.8375006 C52.1010729,60.8375006 57.7431348,70.3482805 60.6252796,72.0448727 C63.5070326,73.7414247 67.6455371,76 67.6455371,76 C67.6455371,76 76.3507349,71.0578178 79.0154554,67.5327825 C81.6801759,64.0077874 82.8005965,60.7255297 82.8005965,60.7255297 L83,42.5957611 L67.6357433,36 Z" id="Fill-17" fill="#FFFFFF"></path>
                <path d="M79.4755329,58.6926543 C79.4755329,64.6954518 68.1717734,71.2631697 67.5070302,71.4526429 L67.4929698,71.4526429 C66.8282266,71.2631697 55.5244671,64.6954518 55.5244671,58.6926543 L55.5244671,45.924306 C58.5716626,45.924306 65.6030212,42.5641018 67.4992189,40.548057 C69.3961977,42.5641018 76.4283374,45.924306 79.4755329,45.924306 L79.4755329,58.6926543 Z M67.4992189,36 C65.0449025,38.6097767 55.9439349,42.9587566 52,42.9587566 L52,59.4856189 C52,67.2540207 66.6306002,75.7543808 67.4902359,76 L67.5085925,76 C68.3682281,75.7543808 83,67.2540207 83,59.4856189 L83,42.9587566 C79.055284,42.9587566 69.9543164,38.6097767 67.4992189,36 Z" id="Fill-18" fill="#A8D2F0"></path>
                <path d="M68.2173364,34.0327526 C69.2023905,34.2278738 69.8643872,35.2287588 70.7804914,35.8678401 C74.2810554,38.3092253 78.2956449,40.2884813 82.2904791,40.9777253 C82.9075422,41.0839756 83.5238304,41.0934551 83.5238304,41.0934551 C84.3245017,41.2174796 84.9334301,41.8925042 84.9737155,42.7306565 C84.9737155,48.3654732 85.0333688,54.0006849 84.9729408,59.6354226 C84.8389145,67.0154683 76.7206429,73.0054925 70.3276687,76.8844946 C69.5126652,77.3790519 68.3114647,77.9091576 68.3114647,77.9091576 C67.7501813,77.9945527 68.3168877,78.077657 67.5061451,77.8695014 C67.5061451,77.8695014 66.4103063,77.3532201 65.5275149,76.8131213 C60.4151498,73.6850595 55.3825806,69.8623423 52.5037279,64.697673 C51.6337195,63.1363477 51.0185932,61.38393 51.0003874,59.5767282 C51.0003874,59.5767282 51,42.7306565 51,42.7306565 C51,42.7306565 51.316085,41.1925957 52.9720451,41.0697562 C57.7005374,40.6830686 62.5402017,38.0588066 66.0512244,35.2267839 C66.5172174,34.8511558 66.9239444,34.4226 66.9239444,34.4226 C67.4825162,33.9707403 67.4949117,33.9620507 68.2173364,34.0327526 Z M67.9570311,37.8858043 C64.9030921,40.2884813 61.3382265,41.9916448 57.6695486,43.2800768 C56.54582,43.6750591 55.4000118,44.0135589 54.2278632,44.2217145 C54.2278632,49.3438442 54.1767318,54.465974 54.2286379,59.5874717 C54.2882912,62.874198 56.9219456,65.732882 59.5114411,68.1707519 C62.0761455,70.5852388 64.9286578,72.7108753 67.9473471,74.440463 L67.986083,74.462424 C73.0620364,71.5859658 78.070202,67.8096591 80.7081173,62.9902833 C81.2953537,61.917314 81.7415913,60.7410569 81.7454649,59.5157825 L81.7454649,44.2217145 C81.0125815,44.0917653 80.9707468,44.0680664 80.698046,44.0021044 C76.1310824,42.8910193 71.7225487,40.8011683 68.0155223,37.8861993 C68.0155223,37.8861993 68.0093246,37.8443312 67.9570311,37.8858043 Z" id="Fill-19" fill="#295183"></path>
                <path d="M79.30434,10.0002944 C82.55031,10.0481806 85.65861,11.8827733 87.29193,14.7320047 C87.29193,14.7320047 88.3851,14.6338772 89.45916,14.876056 C91.0956,15.2454081 92.53899,16.3071481 93.47538,17.7205773 C93.47538,17.7205773 102,17.7292126 102,17.7292126 L102,21 L91.46727,21 C90.68805,19.2368442 89.30706,17.3908688 87.0942,18.1499835 C87.0942,18.1499835 85.46907,18.7929152 85.46907,18.7929152 C84.32481,15.7646991 82.20165,12.8459933 78.63354,13.3083703 C75.64146,13.6957778 73.20981,16.7232089 73.15053,19.3188788 C73.15053,19.3188788 73.13961,21 73.13961,21 L63,21 L63,17.7292126 L70.09917,17.7292126 C71.04609,13.6200234 74.82324,10.0536758 79.14795,10.0002944 C79.22634,10 79.22595,10 79.30434,10.0002944 Z" id="Fill-20" fill="#BCC0C4"></path>
            </g>
        </g>
    </g>
</svg>