<?xml version="1.0" encoding="UTF-8"?>
<svg width="108px" height="99px" viewBox="0 0 108 99" version="1.1" xmlns="http://www.w3.org/2000/svg" xmlns:xlink="http://www.w3.org/1999/xlink">
    <!-- Generator: sketchtool 59.1 (101010) - https://sketch.com -->
    <title>35959429-717B-45CF-B497-9BF0A4DE8B35</title>
    <desc>Created with sketchtool.</desc>
    <g id="Page-1" stroke="none" stroke-width="1" fill="none" fill-rule="evenodd">
        <g id="landing_2" transform="translate(-1346.000000, -1313.000000)">
            <g id="icon/dlaUbezpieczajacych" transform="translate(1346.000000, 1313.000000)">
                <path d="M80,40.0001846 C80,62.0907845 62.0908583,80 39.9998154,80 C17.9091786,80 0,62.0907845 0,40.0001846 C0,17.9091417 17.9091786,0 39.9998154,0 C62.0908583,0 80,17.9091417 80,40.0001846 Z" id="Fill-1" fill="#E9EAEB"></path>
                <path d="M54.0184991,97 C55.9051439,96.4611813 88,77.7604454 88,60.6668653 L88,24.3090165 C79.3471879,24.3090165 59.3841555,14.7416685 53.99846,9 C48.6146199,14.7416685 28.6511422,24.3090165 20,24.3090165 L20,60.6668653 C20,77.7604454 52.0936315,96.4611813 53.9784209,97 L54.0184991,97 Z" id="Fill-2" fill="#FFFFFF"></path>
                <path d="M80.2689868,58.9239117 C80.2689868,72.1300087 55.4735609,86.5789605 54.0155303,86.9958021 L53.9847295,86.9958021 C52.5263278,86.5789605 27.7311616,72.1300087 27.7311616,58.9239117 L27.7311616,30.8332356 C34.4155026,30.8332356 49.839232,23.4412449 53.99846,19.00568 C58.1591723,23.4412449 73.5844603,30.8332356 80.2689868,30.8332356 L80.2689868,58.9239117 Z M53.99846,9 C48.6146199,14.7416685 28.6511422,24.3090165 20,24.3090165 L20,60.6683474 C20,77.7588891 52.0936315,96.4596622 53.9784209,97 L54.0184991,97 C55.9051439,96.4596622 88,77.7588891 88,60.6683474 L88,24.3090165 C79.3471879,24.3090165 59.3841555,14.7416685 53.99846,9 Z" id="Fill-3" fill="#A8D2F0"></path>
                <path d="M54.8289391,8.08500498 C55.4628842,8.27813335 55.2079724,8.14679126 55.9701144,8.89599614 C58.1968883,11.056296 60.9008808,12.6919675 63.6337733,14.2577133 C70.6760845,18.2926903 78.2752744,21.8877638 85.9733908,23.1116501 C86.7896276,23.2415122 87.613645,23.3299369 88.4435907,23.3332667 C88.4435907,23.3332667 89.6618324,23.5667227 89.9185968,24.44172 C89.973803,24.6296686 89.9667633,24.6810956 89.9808427,24.8749639 C89.9808427,37.0135629 90.0241926,49.1517919 89.9804722,61.2903909 C89.9019238,68.4311829 85.2097667,74.8498523 80.3827435,79.9743027 C73.4664062,87.3163996 65.2051124,93.5226649 56.5151368,98.202106 C55.7855997,98.5950594 54.7366818,98.983129 54.7366818,98.983129 L54.468802,99 C53.9693526,98.9630022 53.9737987,98.9193819 53.9737987,98.9193819 C52.5162067,98.4300863 51.1957038,97.5107287 49.8403729,96.692412 C39.7028091,90.5713156 29.8500203,83.308579 23.269033,73.3515536 C20.8549656,69.6990595 19.0161543,65.5592308 19,61.1819874 L19,24.8749639 C19.1253811,23.1194196 20.060552,23.3402963 20.7222484,23.3317868 C20.8143575,23.3299369 20.8141723,23.3299369 20.9061332,23.3273471 C23.9097955,23.2170937 26.8482477,22.3247075 29.7450174,21.3435265 C37.5342056,18.7048454 45.2286169,15.1600889 51.4698823,10.2305058 C52.0923416,9.73880539 52.6959047,9.22120656 53.2498193,8.65292078 L53.5347426,8.3769174 C54.2327862,7.90778566 54.0104793,7.96328231 54.8289391,8.08500498 Z M54.4180419,11.7910718 C48.3342439,17.0998821 40.6187134,20.5906219 33.1055933,23.4157718 C29.5336777,24.7587909 25.8488672,25.9634383 22.0918069,26.3371158 L22.0875831,26.3374858 C22.0875831,37.9810546 22.0449002,49.6246234 22.0879165,61.2678223 C22.1609073,67.9097733 26.8964512,73.8810657 31.8815346,78.9351463 C37.9966038,85.134752 45.0385445,90.3587264 52.6155037,94.7514349 C53.2268476,95.1058735 53.8430082,95.4540595 54.4732482,95.7736833 C54.4732482,95.7736833 56.7885742,94.5357378 58.7478388,93.3126285 C66.7897899,88.2915499 74.4482616,82.4621069 80.4042332,75.303223 C83.8285,71.1876649 86.8741042,66.4293814 86.8930003,61.1760678 L86.8930003,26.3378558 C86.8085237,26.3297163 86.7244176,26.3208368 86.6403115,26.3119573 C79.038528,25.4613786 71.9347119,22.1389786 65.1973316,18.6253002 C61.4759146,16.6843971 57.801923,14.5914332 54.6485001,11.8687671 C54.6485001,11.8687671 54.5425338,11.6815584 54.4180419,11.7910718 Z" id="Fill-4" fill="#295183"></path>
                <path d="M54.601872,18.0037029 C55.5369944,18.1675634 56.1410348,19.0985555 56.9577034,19.7433429 C62.5092106,24.1278971 69.4041744,27.1681338 75.9283265,28.9544337 C77.4192985,29.3626153 78.9382285,29.7142173 80.4740805,29.7211979 C80.4740805,29.7211979 80.8515138,29.7366288 81.1369799,29.8747712 C81.6516283,30.1246034 81.9672597,30.6646817 82,31.2517872 L82,59.1091738 C81.9724098,64.5786975 78.4986253,69.5049466 74.7871976,73.502114 C73.45772,74.9338359 71.0934276,72.9773563 72.5395196,71.4202407 C72.628176,71.3247533 72.7160966,71.2287884 72.8040172,71.1326765 C75.8646852,67.7691643 78.7498797,63.8831355 78.9271924,59.4706956 C78.9319747,59.3476165 78.9338141,59.2245375 78.9345498,59.1014584 L78.9345498,32.6872199 C78.841479,32.6761979 78.7487761,32.6644411 78.6560732,32.6526843 C71.6544274,31.7073635 64.9779777,28.397455 59.1204037,24.8931917 C57.4962633,23.9214181 55.9059667,22.8805733 54.4602426,21.6571306 C54.4602426,21.6571306 52.5991946,23.0903589 50.9842508,24.1198143 C49.8243607,24.8593909 48.6332017,25.5478989 47.4251208,26.2055453 C47.4251208,26.2055453 45.1605208,26.8242472 45.0049123,25.0842398 C44.8779976,23.6682794 47.2375077,22.8482421 48.9289682,21.7949057 C50.4942497,20.8201929 52.0595312,19.8017595 53.3088134,18.4750773 C53.3088134,18.4750773 53.6888218,17.9511646 54.601872,18.0037029 Z" id="Fill-5" fill="#295183"></path>
                <path d="M65.8157177,78.679278 C66.9616139,78.9784044 67.4675129,80.544395 66.4557148,81.4343622 C63.0397024,84.0900728 59.4991441,86.694942 55.6580589,88.6145506 C55.3145472,88.7861824 54.8520005,88.9336039 54.8520005,88.9336039 C54.4188451,88.9988597 54.7608872,89.0428851 54.2215555,88.9332314 C53.289849,88.7439076 52.4408057,88.101704 51.5616362,87.5798809 C43.6061261,82.8569912 35.9777421,76.9946574 30.8696683,69.6586297 C28.7059855,66.5511939 27.0132996,62.9958693 27,59.1953884 L27,30.9551141 C27.0940157,29.3766087 29.2661484,29.4570611 30.9542052,29.1300371 C33.2634854,28.6823345 35.5055329,27.9076079 37.7032361,27.0501941 C37.7032361,27.0501941 38.79733,26.7876065 39.3936075,27.46363 C39.9689436,28.1158157 39.841826,29.2671041 39.1287177,29.7714213 C38.6720493,30.0943482 38.5203163,30.0571017 38.2660809,30.154315 C35.6182856,31.1599697 32.9108624,32.0598445 30.1178369,32.4036294 L30.0616259,32.4103338 C30.0616259,41.3599158 30.0305078,50.3094978 30.0618464,59.2590798 C30.1169919,64.3676195 33.798335,68.9818241 37.4646884,72.7556738 C42.4620669,77.8995231 48.2940502,82.3695839 54.4937931,85.687574 L54.5375128,85.7105178 C57.9972449,83.874453 61.2203764,81.5737013 64.3428425,79.1650092 L64.7458717,78.8664415 C65.3520688,78.5518951 65.1367769,78.5884711 65.8157177,78.679278 Z" id="Fill-6" fill="#295183"></path>
                <polygon id="Fill-7" fill="#BCC0C4" points="14 83 17 83 17 80 14 80"></polygon>
                <polygon id="Fill-8" fill="#BCC0C4" points="14 89 17 89 17 86 14 86"></polygon>
                <polygon id="Fill-9" fill="#BCC0C4" points="11 87 14 87 14 84 11 84"></polygon>
                <polygon id="Fill-10" fill="#BCC0C4" points="17 87 20 87 20 84 17 84"></polygon>
                <polygon id="Fill-11" fill="#BCC0C4" points="82 9 85 9 85 6 82 6"></polygon>
                <polygon id="Fill-12" fill="#BCC0C4" points="82 15 85 15 85 12 82 12"></polygon>
                <polygon id="Fill-13" fill="#BCC0C4" points="79 13 82 13 82 10 79 10"></polygon>
                <polygon id="Fill-14" fill="#BCC0C4" points="86 13 89 13 89 10 86 10"></polygon>
                <path d="M17,15.0712076 L14.0710465,18 L12,15.9287924 L14.9289184,13 C15.6192789,13.6902854 16.3096395,14.3805708 17,15.0712076 Z" id="Fill-15" fill="#BCC0C4"></path>
                <path d="M24,8.07085618 L21.0710816,11 L19,8.92879235 L21.9289184,6 C22.6192789,6.69028539 23.3096395,7.38057079 24,8.07085618 Z" id="Fill-16" fill="#BCC0C4"></path>
                <path d="M24,15.9287924 L21.9289184,18 L19,15.0712076 L21.0710816,13 C22.0473643,13.9763813 23.0236822,14.9527625 24,15.9287924 Z" id="Fill-17" fill="#BCC0C4"></path>
                <path d="M17,8.92879235 L14.9289184,11 L12,8.07085618 L14.0710465,6 C15.0473643,6.97638127 16.0236822,7.95241108 17,8.92879235 Z" id="Fill-18" fill="#BCC0C4"></path>
                <path d="M105.439763,23.2162689 L67.5702549,61.0849828 L58,63 L59.9136782,53.4285667 L97.7828133,15.5613438 C98.5316601,14.8128854 99.7430848,14.8128854 100.490068,15.5613438 L105.439763,20.5094439 C106.186746,21.2579022 106.186746,22.4693015 105.439763,23.2162689 Z" id="Fill-19" fill="#A8D2F0"></path>
                <path d="M103,27.7704211 L100.770968,30 L93,22.2295789 L95.2290319,20 C97.8193546,22.5901404 100.409677,25.1802807 103,27.7704211 Z" id="Fill-20" fill="#295183"></path>
                <path d="M99.7100009,14.0006279 C100.580102,14.0318815 101.421908,14.3834854 102.045164,14.9843744 C103.721701,16.6437956 105.395631,18.3061933 107.051691,19.9860782 C108.280705,21.2641301 108.34102,23.4444459 107.080732,24.7850052 L107.02265,24.844536 L69.1935302,62.6484944 C68.7739306,63.0284869 68.6849472,63.0010283 68.4008704,63.0724281 L58.841669,64.983925 C57.7991855,65.1337938 56.8646735,64.2132616 57.0162059,63.159864 L58.9273016,53.6053559 C58.9954353,53.3344907 59.0147957,53.1845475 59.3517413,52.8132241 C71.9706318,40.2031115 84.5158038,27.5193294 97.2084128,14.9832582 C97.832786,14.3823691 98.6701236,14.0318815 99.5439482,14.0006279 C99.6269745,13.9997907 99.6266022,13.9997907 99.7100009,14.0006279 Z M99.618039,17.1002992 C99.5000149,17.1047872 99.3682152,17.2097103 99.3682152,17.2097103 L61.8779022,54.6735618 L60.514855,61.4872344 L67.3315802,60.124351 C79.8283512,47.6359045 92.3251222,35.1474579 104.821893,22.6590113 C104.958905,22.5220905 104.960395,22.2895483 104.831573,22.1522553 C103.215724,20.4719984 101.53323,18.8568532 99.8842446,17.2093382 C99.81276,17.1382733 99.7181918,17.0992062 99.618039,17.1002992 Z" id="Fill-21" fill="#295183"></path>
                <path d="M53.6557748,62.002664 C55.1931486,62.1346029 55.7210601,64.9384045 53.5634276,65 L39.5431163,65 C38.3384911,64.9656203 38.3070856,64.5560516 38.099585,64.0637555 C37.7320659,63.1914825 38.4263518,62.0611995 39.4507692,62.002664 C39.4818008,62.0009 39.5124585,62.0009 39.5431163,62 L53.5634276,62 C53.5940854,62.0009 53.625117,62.001764 53.6557748,62.002664 Z" id="Fill-22" fill="#295183"></path>
            </g>
        </g>
    </g>
</svg>