<?xml version="1.0" encoding="UTF-8"?>
<svg width="102px" height="108px" viewBox="0 0 102 108" version="1.1" xmlns="http://www.w3.org/2000/svg" xmlns:xlink="http://www.w3.org/1999/xlink">
    <!-- Generator: sketchtool 59.1 (101010) - https://sketch.com -->
    <title>EC985AC6-A999-4F44-AB72-24C4DFA24217</title>
    <desc>Created with sketchtool.</desc>
    <g id="Page-1" stroke="none" stroke-width="1" fill="none" fill-rule="evenodd">
        <g id="landing_2" transform="translate(-761.000000, -1309.000000)">
            <g id="icon/dlaWynajmujacych" transform="translate(761.000000, 1309.000000)">
                <g id="Group-17">
                    <path d="M22.2846315,30.3349787 C22.2846315,47.0791915 35.8241573,60.6527234 52.5250337,60.6527234 C69.2255281,60.6527234 82.7636404,47.0791915 82.7636404,30.3349787 C82.7636404,13.589234 69.224,0.0160851064 52.5250337,0.0160851064 C35.8241573,0.0160851064 22.2846315,13.589234 22.2846315,30.3349787 Z" id="Fill-1" fill="#E9EAEB"></path>
                    <polygon id="Fill-2" fill="#FFFFFF" points="76.4044944 86.1845745 76.4044944 57.4613617 47.752809 28.7394894 19.1011236 57.4613617 19.1011236 86.1845745"></polygon>
                    <path d="M17.8618809,-4.59291306e-05 C21.4794427,0.0375319149 24.8723753,2.772 25.7653528,6.35246809 C25.7653528,6.35246809 39.7941348,6.39880851 39.7941348,6.39880851 L39.7941348,9.59055319 L22.8146112,9.59055319 L22.7868,7.95829787 C22.6921348,4.92280851 19.2205438,2.24885106 16.0999169,3.53412766 C15.0266247,3.97608511 14.1320045,4.80217021 13.5375775,5.80212766 L12.9891461,6.74004255 C10.9825348,6.50910638 8.88026517,7.04412766 7.66795506,8.81731915 L7.15547191,9.59055319 L0,9.59055319 L0,6.39880851 L5.50395056,6.39880851 C5.54906742,6.34442553 5.59491011,6.29042553 5.64117303,6.23719149 C7.08544719,4.58731915 9.10424494,3.47629787 11.3096225,3.40429787 C11.3581011,3.33919149 11.407382,3.27485106 11.4572742,3.21089362 C13.0066045,1.25004255 15.2519798,-0.00880851064 17.8618809,-4.59291306e-05 Z" id="Fill-3" fill="#BCC0C4"></path>
                    <polygon id="Fill-4" fill="#FFFFFF" points="23.8764045 17.5691489 23.8764045 36.7180851 33.4269663 27.143617 33.4269663 17.5691489"></polygon>
                    <path d="M35.0187393,27.8046383 L25.0019573,37.8463404 L22.2846315,36.7180851 L22.2846315,15.9732766 L35.0187393,15.9732766 L35.0187393,27.8046383 Z M25.4681775,19.1650213 L25.4681775,32.8657021 L31.8351933,26.4825957 L31.8351933,19.1650213 L25.4681775,19.1650213 Z" id="Fill-5" fill="#295183"></path>
                    <polygon id="Fill-6" fill="#295183" points="17.5093506 86.1845745 20.6928584 86.1845745 20.6928584 57.4611702 17.5093506 57.4611702"></polygon>
                    <polygon id="Fill-7" fill="#A8D2F0" points="47.752809 12.7819149 6.36705393 54.269617 14.3258427 62.2485957 47.752809 28.7394894 81.1797753 62.2485957 89.1384494 54.269617"></polygon>
                    <path d="M47.8662697,11.1902553 C48.6188539,11.2986383 48.4545843,11.285617 48.8782472,11.6536596 L90.2642697,53.1413617 C90.694809,53.639617 90.6474382,53.7162128 90.6940449,53.9302979 C90.8002472,54.4208936 90.813236,54.7628936 90.2642697,55.3978723 L82.3052135,63.3768511 C81.3845393,64.1765106 80.8439775,63.882766 80.4168764,63.6491489 C80.2388539,63.5514894 80.206382,63.5089787 80.0543371,63.3768511 L47.752809,30.996 L15.4513573,63.3768511 C15.4513573,63.3768511 14.3915888,64.1025957 13.562982,63.6491489 C13.385036,63.5514894 13.3523348,63.5089787 13.2002899,63.3768511 L5.24150112,55.3978723 C4.44357079,54.4748936 4.73681124,53.9329787 4.96999775,53.5048085 C5.06714607,53.3263404 5.10974157,53.2937872 5.24150112,53.1413617 L46.6273708,11.6536596 C47.26,11.1040851 47.0433933,11.1902553 47.8662697,11.1902553 Z M8.61815955,54.269617 L14.3258809,59.9917021 L46.6273708,27.6108511 C47.124,27.179234 47.2007865,27.2267234 47.4143371,27.18 C47.9037079,27.0735319 48.2448539,27.0605106 48.8782472,27.6108511 L81.1797753,59.9917021 L86.887573,54.269617 L47.752809,15.0388085 C34.7079258,28.115617 21.6630427,41.1928085 8.61815955,54.269617 Z" id="Fill-8" fill="#295183"></path>
                    <path d="M28.6516854,87.7803319 L44.5692629,87.7803319 L44.5692629,62.2484043 L28.6516854,62.2484043 L28.6516854,87.7803319 Z M31.8351933,84.5888553 L41.3857551,84.5888553 L41.3857551,65.4399191 L31.8351933,65.4399191 L31.8351933,84.5888553 Z" id="Fill-9" fill="#295183"></path>
                    <path d="M47.9040899,84.5960553 C49.130382,84.7728383 49.7970112,86.4355404 48.8511236,87.3394851 C48.5707191,87.6074936 48.3743596,87.7506511 47.752809,87.7803319 L9.5505618,87.7803319 C7.24475056,87.6702255 7.75677528,85.8231574 8.34757303,85.139617 C8.64509213,84.7953957 9.09205843,84.6107234 9.5505618,84.5888553 L47.752809,84.5888553 C47.803236,84.5912681 47.8536629,84.5936426 47.9040899,84.5960553 Z" id="Fill-10" fill="#295183"></path>
                    <path d="M47.8345618,38.3143404 C51.4259551,38.3825106 54.5742022,41.8902128 54.0580899,45.5871064 C53.6378652,48.5969362 50.8028764,51.0797872 47.752809,51.0797872 C43.5150337,51.0797872 39.9515281,45.9628085 42.0832135,41.7898723 C43.1307191,39.7394043 45.3346067,38.358766 47.6710562,38.3143404 C47.752809,38.3140532 47.752809,38.3140532 47.8345618,38.3143404 Z M47.7111685,41.5057021 C45.2753933,41.5516596 43.5383371,45.0310213 45.5290562,46.98 C47.1618202,48.5789362 50.5526517,47.6716596 50.9052584,45.144766 C51.1585393,43.3305957 49.690809,41.4930638 47.7111685,41.5057021 Z" id="Fill-11" fill="#295183"></path>
                    <path d="M79.6409888,10.0279149 C82.8087191,10.0750213 85.8626067,11.8600851 87.465191,14.6447234 C87.465191,14.6447234 88.536,14.5489787 89.5880899,14.7852766 C91.1922022,15.1456596 92.6056854,16.182766 93.5221573,17.5603404 C93.5221573,17.5603404 101.872787,17.5691489 101.872787,17.5691489 L101.872787,20.7605106 L91.5558876,20.7605106 C90.7926067,19.0424681 89.4646966,17.1922979 87.243618,17.9896596 C87.243618,17.9896596 85.679236,18.6070213 85.679236,18.6070213 C84.5637303,15.6634468 82.5218202,12.8550638 79.0542022,13.247234 C76.0885618,13.5827234 73.6688315,16.6457872 73.6130562,19.1198298 L73.6015955,20.7605106 L63.6705393,20.7605106 L63.6705393,17.5691489 L70.6244944,17.5691489 C71.553573,13.5448085 75.2515506,10.08 79.4881798,10.0279149 C79.5645843,10.0276277 79.5645843,10.0276277 79.6409888,10.0279149 Z" id="Fill-12" fill="#BCC0C4"></path>
                    <path d="M66.4268315,88.2101489 C60.0925169,88.2101489 52.3298202,92.6865957 52.3298202,95.2735787 L52.3298202,100.57117 C52.3298202,103.158153 60.0925169,107.634638 66.4268315,107.634638 C72.7626742,107.634638 80.5238427,103.158153 80.5238427,100.57117 L80.5238427,95.2735787 C80.5238427,92.6865957 72.7626742,88.2101489 66.4268315,88.2101489 Z" id="Fill-13" fill="#A8D2F0"></path>
                    <path d="M66.5097303,86.6145064 C71.9848764,86.6600809 77.9150112,88.7239149 81.1327865,92.8168085 C81.6817528,93.5151319 82.1050337,94.3546213 82.1153483,95.2643106 L82.1153483,100.57117 C82.0977753,101.001332 82.0381798,101.118102 81.923573,101.330655 C81.2806292,102.522026 78.999191,102.198026 78.9319551,100.57117 L78.9319551,95.2959447 C78.6675955,94.3054851 77.333191,93.4971319 76.126,92.7602426 C70.4537303,89.2982298 63.1571011,88.7037702 56.5175506,92.8908766 C55.5086292,93.5270809 54.3197753,94.1908596 53.9308764,95.2667617 C53.9262921,95.2790936 53.9217079,95.2959447 53.9217079,95.2959447 L53.9217079,100.57117 C53.8739551,101.728264 53.5465618,101.725391 53.0873708,101.974596 C52.1307865,102.493532 50.7872135,101.758366 50.7379326,100.57117 L50.7379326,95.2643106 C50.762382,93.1783021 52.6109888,91.7087745 54.1046966,90.6655021 C57.6697303,88.1753745 61.9785618,86.6508894 66.3435506,86.6145064 C66.3989438,86.6145064 66.4543371,86.6145064 66.5097303,86.6145064 Z" id="Fill-14" fill="#295183"></path>
                    <path d="M66.4214831,88.2101489 C71.7163146,88.2101489 75.2286292,83.8060468 75.2286292,78.3724979 L75.2286292,75.0915191 C75.2286292,69.6579319 71.7163146,65.2538298 66.4214831,65.2538298 C61.1266517,65.2538298 57.6143371,69.6579319 57.6143371,75.0915191 L57.6143371,78.3724979 C57.6143371,83.8060468 61.1266517,88.2101489 66.4214831,88.2101489 Z" id="Fill-15" fill="#FFFFFF"></path>
                    <path d="M66.4936854,63.6582428 C72.0987191,63.7127234 76.7731461,68.831617 76.8201348,75.0197872 C76.8285393,78.2229064 76.8724719,81.4572 75.4708315,84.2012426 C72.9357303,89.1629617 65.959618,91.3935447 61.0433708,88.2861702 C57.8382022,86.2601362 56.0717303,82.3599957 56.0232135,78.5158851 C55.997618,75.1405404 55.9846292,71.7070979 57.5906517,68.8553617 C59.3158652,65.7930638 62.6188315,63.7422128 66.2048764,63.6602553 C66.3011461,63.6587234 66.3974157,63.6579574 66.4936854,63.6582428 Z M66.3699101,66.8497021 C64.1690787,66.8711489 62.032427,67.9408085 60.7331685,69.8308468 C59.0962022,72.2118638 59.1825393,75.3437872 59.2066067,78.4834085 C59.2471011,81.6916596 60.8901798,85.0629447 63.9769213,86.1946085 C67.2722472,87.4029447 71.2731685,85.7700383 72.8039326,82.4004383 C73.8208764,80.1621574 73.6558427,77.556983 73.6363596,74.9803404 C73.5882247,71.0990809 71.1157753,66.9550213 66.5758202,66.851234 C66.5070562,66.8500851 66.4382921,66.8497021 66.3699101,66.8497021 Z" id="Fill-16" fill="#295183"></path>
                </g>
            </g>
        </g>
    </g>
</svg>