<?xml version="1.0" encoding="UTF-8"?>
<svg width="107px" height="103px" viewBox="0 0 107 103" version="1.1" xmlns="http://www.w3.org/2000/svg" xmlns:xlink="http://www.w3.org/1999/xlink">
    <!-- Generator: sketchtool 59.1 (101010) - https://sketch.com -->
    <title>DE3474FC-4F81-4822-A909-A5A2EFE7F8EB</title>
    <desc>Created with sketchtool.</desc>
    <g id="Page-1" stroke="none" stroke-width="1" fill="none" fill-rule="evenodd">
        <g id="landing_2" transform="translate(-464.000000, -1309.000000)">
            <g id="icon/dlaNajemcow" transform="translate(464.000000, 1309.000000)">
                <path d="M23,30.5009632 C23,47.3451294 36.6561609,61 53.5009055,61 C70.3452648,61 84,47.3451294 84,30.5009632 C84,13.6544853 70.3437235,0 53.5009055,0 C36.6561609,0 23,13.6544853 23,30.5009632 Z" id="Fill-1" fill="#E9EAEB"></path>
                <polygon id="Fill-2" fill="#FFFFFF" points="77 87 77 57.9992846 48.5 29 20 57.9992846 20 87"></polygon>
                <path d="M18.4031421,0 C22.1274914,0.0387884493 25.6266236,2.88889937 26.546149,6.62395436 C26.546149,6.62395436 41,6.67227486 41,6.67227486 L41,10 L23.5059529,10 L23.477299,8.29839952 C23.3804343,5.15437216 19.8519397,2.35697451 16.6265554,3.66881623 C15.5175516,4.12007381 14.5899575,4.97346978 13.9697639,6.0121609 C13.9697639,6.0121609 13.3827508,7.02808947 13.3827508,7.02808947 C12.7197731,6.95061693 12.0584091,6.82482388 11.4103488,6.90029971 C9.973674,7.06802377 8.70305855,8.00608045 7.90015648,9.19412585 L7.37245865,10 L0,10 L0,6.67227486 L5.67073449,6.67227486 C5.71717915,6.61516881 5.76433227,6.5592608 5.811879,6.50335278 C7.29531329,4.78857398 9.38016646,3.62448916 11.6523726,3.54981202 C11.7022022,3.48152437 11.7530158,3.41443475 11.8043411,3.34774447 C13.4015254,1.30191033 15.7132096,-0.00953205253 18.4031421,0 Z" id="Fill-3" fill="#BCC0C4"></path>
                <polygon id="Fill-4" fill="#FFFFFF" points="24 18 24 37 34 27.5 34 18"></polygon>
                <path d="M34,28.8998459 L24.5606749,39 L22,37.8651772 L22,17 L34,17 L34,28.8998459 Z M25.000018,20.2099384 L25.000018,33.9903698 L30.999982,27.5701079 L30.999982,20.2099384 L25.000018,20.2099384 Z" id="Fill-5" fill="#295183"></path>
                <polygon id="Fill-6" fill="#295183" points="18 86 21 86 21 57 18 57"></polygon>
                <polygon id="Fill-7" fill="#A8D2F0" points="47.5000575 13 6 54.0962969 13.98077 62 47.5000575 28.8070268 81.019345 62 89 54.0962969"></polygon>
                <path d="M47.3210651,11.036841 C47.8354521,11.1890371 47.8644747,11.2576217 48.1077297,11.470311 L89.4778848,53.2101906 C90.2752419,54.1387795 89.982343,54.6839884 89.7490168,55.1147612 C89.6520203,55.2943141 89.6092502,55.3274504 89.4778848,55.4808025 L81.5218802,63.507895 C81.0254413,63.9421356 80.9486843,63.8943576 80.7352156,63.941365 C80.2460324,64.0488655 79.9050171,64.0615806 79.2718667,63.507895 L46.982723,30.9302213 L14.6936557,63.507895 C14.6936557,63.507895 13.6342934,64.2380511 12.8060044,63.781848 C12.6281265,63.6835948 12.595438,63.6408258 12.4434513,63.507895 L4.48771393,55.4808025 C4.05730148,54.9795186 4.10450136,54.9020719 4.05802705,54.6866855 C3.95163639,54.1931078 3.93895811,53.849029 4.48771393,53.2101906 L45.8577163,11.470311 C46.2014047,11.1697718 46.372867,10.8992866 47.3210651,11.036841 Z M7.86307775,54.3453039 L13.5686108,60.1021699 L45.8577163,27.5244961 C46.3541551,27.0906409 46.4309122,27.1380336 46.6443809,27.0910262 C47.133564,26.983911 47.4745793,26.9711958 48.1077297,27.5244961 L80.3968734,60.1021699 L86.1024828,54.3453039 L46.982723,14.8760361 C33.9428413,28.0323302 20.9029595,41.1890097 7.86307775,54.3453039 Z" id="Fill-8" fill="#295183"></path>
                <path d="M29,88 L44,88 L44,63 L29,63 L29,88 Z M31.9999928,84.8750141 L41.0000072,84.8750141 L41.0000072,66.1250234 L31.9999928,66.1250234 L31.9999928,84.8750141 Z" id="Fill-9" fill="#295183"></path>
                <path d="M47.6155527,85.006804 C48.8330066,85.1729447 49.4948312,86.7358909 48.5557609,87.5856023 C48.2773774,87.8375674 48.082433,87.9720999 47.4653622,88 L9.53845001,88 C8.31041452,87.9444878 7.50700874,86.4347497 8.34413155,85.5177181 C8.63180717,85.2026088 8.86509561,85.0304561 9.53845001,85 L47.4653622,85 C47.5154257,85.002268 47.5654892,85.004536 47.6155527,85.006804 Z" id="Fill-10" fill="#295183"></path>
                <path d="M48.0599689,39.0002046 C52.06467,39.0758633 55.3361108,43.7892574 53.4536026,47.690775 C51.8431984,51.0284895 46.844061,52.1593694 43.9536387,49.5971571 C41.5320221,47.4510678 41.3061794,43.2683761 43.587555,40.8793058 C44.6981911,39.715689 46.2776329,39.0311228 47.9040646,39.0002046 C47.9820168,38.9999318 47.9820168,38.9999318 48.0599689,39.0002046 Z M47.9423122,42.0312829 C45.6219606,42.0749322 43.9507246,45.3675424 45.8616452,47.2306389 C47.4188671,48.7492699 50.6513318,47.8890155 50.9879103,45.4875779 C51.2283235,43.7725252 49.82992,42.0192794 47.9423122,42.0312829 Z" id="Fill-11" fill="#295183"></path>
                <path d="M79.30395,11 C82.53822,11.0436224 85.659,12.7114637 87.29154,15.3017205 C87.29154,15.3017205 88.38471,15.2125121 89.45877,15.4323217 C91.09638,15.7681023 92.53938,16.7347652 93.47538,18.0182965 C93.47538,18.0182965 102,18.0261468 102,18.0261468 L102,21 L91.46688,21 C90.69,19.4010276 89.3328,17.6750223 87.06534,18.4179504 C87.06534,18.4179504 85.46907,18.9931665 85.46907,18.9931665 C84.3291,16.2516122 82.24494,13.6338792 78.70491,13.999277 C75.67734,14.3118635 73.20942,17.1108681 73.15014,19.4716807 C73.15014,19.4716807 73.13922,21 73.13922,21 L63,21 L63,18.0261468 L70.09917,18.0261468 C71.06325,14.2215845 74.96247,10.9804628 79.30395,11 Z" id="Fill-12" fill="#BCC0C4"></path>
                <path d="M57.5804733,74.200158 L63.8866232,77.1689061 L64.2318476,77.2987097 C64.6786981,76.5081391 65.4399427,75.9856757 66.4992145,75.9856757 L72.9317309,75.9856757 C74.405881,75.9856757 76.6473656,73.8575535 78.4237298,73.8575535 L84.7245509,73.8575535 C87.3158274,73.8575535 89.6315333,75.9633114 90.9363065,77.1689061 C92.9505596,79.1693402 97,83.2085148 97,83.2085148 L87.1453086,93 C85.5341345,91.4007256 83.6374937,89.8184511 81.9905411,89.8184511 L69.1258888,89.8184511 C67.1188675,89.8184511 65.1194587,89.206606 63.7001182,87.797806 L53.0316564,77.2082703 L50,69.6853642 C51.8483018,67.8519824 56.0644547,69.8109367 57.5804733,74.200158 Z" id="Fill-13" fill="#FFFFFF"></path>
                <path d="M49.7618686,66.0001278 C52.9307771,66.0529106 55.6647451,68.8740698 56.8882335,71.8637041 C56.8882335,71.8637041 61.9185175,74.2940406 61.9185175,74.2940406 C62.6671731,73.6432342 63.638915,73.3071511 64.6222758,73.2877617 C66.8287378,73.2733379 69.0452697,73.4989959 71.2416618,73.286343 C72.0549969,73.1914846 72.8404463,72.5319688 73.7103276,72.0600022 C76.4973559,70.5664264 79.9637127,71.0673195 83.2356437,71.0673195 C86.1315041,71.086039 88.6722081,73.0899267 90.6718506,74.9819312 C93.1184401,77.4750074 95.5596073,79.9709211 98,82.4664407 L85.6957888,95 C84.2457285,93.5282964 82.8467921,91.7881757 81.0334421,91.1248765 C80.8506353,91.0580777 80.6589206,91.006412 80.4637202,91.0019587 C76.0941741,90.9681455 71.7242407,91.0018011 67.3543073,91.0018011 C64.9193368,90.9899389 62.4680997,90.1754654 60.7387943,88.4561528 C60.7387943,88.4561528 49.606173,77.1275744 49.606173,77.1275744 L46,67.9538216 L46.7928081,67.1583828 C47.5910384,66.3768556 48.5732374,65.9919443 49.7618686,66.0001278 Z M52.3567949,75.2821123 C55.9141678,78.9020207 59.4304867,82.5639789 63.0289136,86.1414434 C64.1393097,87.2295361 65.7268624,87.6944878 67.2780087,87.7172665 C71.6893834,87.7387446 76.1011455,87.684005 80.5125203,87.7181335 C82.52262,87.7641636 84.2554111,89.1111365 85.6570586,90.3790148 C85.6570586,90.3790148 93.4422249,82.4621845 93.4422249,82.4621845 C91.255128,80.2267273 89.2341839,77.8001741 86.7779118,75.8956768 C85.7546588,75.1023662 84.5950753,74.3937463 83.3131042,74.3525635 L83.2716629,74.3517359 C81.1124518,74.337785 78.9520788,74.2908878 76.7936423,74.3520118 C75.0321908,74.4341803 73.4539334,76.497852 71.3016937,76.5707988 C69.0824507,76.5959026 66.8624332,76.5282761 64.6431902,76.5720599 C63.5320195,76.6088682 63.3782604,78.4558672 63.6660261,79.2251381 C63.8209471,79.639843 64.2322623,79.944635 64.6904411,79.9475119 L76.0852661,79.9475119 C77.1619669,80.0069018 77.306818,80.4283457 77.5109264,80.8204295 C78.021391,81.79991 77.2723481,83.1661541 76.0852661,83.231613 C72.2645276,83.231613 68.443789,83.2553375 64.6230505,83.2312583 C63.1586599,83.2036718 61.7461679,82.445199 60.9808583,81.1031523 C60.31586,79.9377778 60.1640375,78.5239666 60.3766665,77.2131321 C60.3766665,77.2131321 54.30725,74.2552618 54.30725,74.2552618 C53.5667277,72.0816773 52.3079948,69.6975286 50.0186501,69.3111985 L50.0089675,69.3096616 C50.7917058,71.3004654 51.574444,73.2913086 52.3567949,75.2821123 Z" id="Fill-14" fill="#295183"></path>
                <polygon id="Fill-15" fill="#A8D2F0" points="98.3679667 80 105 86.6315851 90.6308561 101 84 94.3684149"></polygon>
                <path d="M107,86.7258697 L90.7248656,103 L82,94.2740537 L98.273603,78 C101.18253,80.9086105 104.091073,83.8172592 107,86.7258697 Z M86.5119374,94.2741686 L90.7252485,98.4880264 L102.488063,86.7258697 L98.273603,82.5118588 C94.3531754,86.4326159 90.432365,90.3533731 86.5119374,94.2741686 Z" id="Fill-16" fill="#295183"></path>
                <path d="M100,87.0449774 L98.0447683,89 L96,86.9550226 L97.9548846,85 C98.6364741,85.6816707 99.3184106,86.3633414 100,87.0449774 Z" id="Fill-17" fill="#295183"></path>
            </g>
        </g>
    </g>
</svg>