<?xml version="1.0" encoding="UTF-8"?>
<svg width="277px" height="521px" viewBox="0 0 277 521" version="1.1" xmlns="http://www.w3.org/2000/svg" xmlns:xlink="http://www.w3.org/1999/xlink">
    <!-- Generator: sketchtool 59.1 (101010) - https://sketch.com -->
    <title>C207D8C8-D18D-4794-BE13-F705E2AD08A7</title>
    <desc>Created with sketchtool.</desc>
    <g id="Page-1" stroke="none" stroke-width="1" fill="none" fill-rule="evenodd" stroke-linecap="round">
        <g id="landing_2" transform="translate(-1356.000000, -845.000000)">
            <g id="linesRight" transform="translate(1489.000000, 1105.500000) scale(-1, 1) translate(-1489.000000, -1105.500000) translate(1346.000000, 846.000000)">
                <path d="M155.441929,8 C59.1473098,65.8467787 11,135.859833 11,218.039163 C11,341.308157 15.5419519,509 273,509" id="Path-2" stroke="#F2F0F4" stroke-width="6" stroke-dasharray="30,50"></path>
                <path d="M168.441929,14 C72.1473098,70.2303019 24,138.286904 24,218.169805 C24,337.994157 28.5419519,501 286,501" id="Path-2-Copy" stroke="#F2F0F4" stroke-width="2" stroke-dasharray="30,50"></path>
                <path d="M144.441929,0 C48.1473098,59.9251061 0,132.453599 0,217.58548 C0,345.283301 4.5419519,519 262,519" id="Path-2-Copy-2" stroke="#F2F0F4" stroke-width="2" stroke-dasharray="30,50"></path>
                <path d="M155.441929,8 C59.1473098,65.8467787 11,135.859833 11,218.039163 C11,341.308157 15.5419519,509 273,509" id="Path-2" stroke="#E1E0E2" stroke-width="6" stroke-dasharray="60,130"></path>
                <path d="M155.441929,8 C59.1473098,65.8467787 11,135.859833 11,218.039163 C11,341.308157 15.5419519,509 273,509" id="Path-2" stroke="#875CE8" stroke-width="6" stroke-dasharray="5,130"></path>
            </g>
        </g>
    </g>
</svg>