<?xml version="1.0" encoding="UTF-8"?>
<svg width="616px" height="1199px" viewBox="0 0 616 1199" version="1.1" xmlns="http://www.w3.org/2000/svg" xmlns:xlink="http://www.w3.org/1999/xlink">
    <!-- Generator: sketchtool 59.1 (101010) - https://sketch.com -->
    <title>412318F4-4E8B-4782-868E-C80FE35A523D</title>
    <desc>Created with sketchtool.</desc>
    <g id="Page-1" stroke="none" stroke-width="1" fill="none" fill-rule="evenodd" stroke-linecap="round">
        <g id="landing_2" transform="translate(-776.000000, -2424.000000)">
            <g id="lineRight2" transform="translate(1018.500000, 2997.000000) scale(-1, 1) rotate(12.000000) translate(-1018.500000, -2997.000000) translate(656.000000, 2412.000000)">
                <path d="M394.066569,19 C150.02219,149.588237 28,307.641659 28,493.160266 C28,771.438176 39.510901,1150 692,1150" id="Path-2" stroke="#F2F0F4" stroke-width="6" stroke-dasharray="30,50"></path>
                <path d="M427.066569,33 C183.02219,159.77797 61,313.219754 61,493.325351 C61,763.483746 72.510901,1131 725,1131" id="Path-2-Copy" stroke="#F2F0F4" stroke-width="2" stroke-dasharray="30,50"></path>
                <path d="M366.066569,0 C122.02219,135.09128 0,298.59482 0,490.51062 C0,778.38432 11.510901,1170 664,1170" id="Path-2-Copy-2" stroke="#F2F0F4" stroke-width="2" stroke-dasharray="30,50"></path>
                <path d="M394.066569,19 C150.02219,149.588237 28,307.641659 28,493.160266 C28,771.438176 39.510901,1150 692,1150" id="Path-2" stroke="#E1E0E2" stroke-width="6" stroke-dasharray="60,130"></path>
                <path d="M394.066569,19 C150.02219,149.588237 28,307.641659 28,493.160266 C28,771.438176 39.510901,1150 692,1150" id="Path-2" stroke="#875CE8" stroke-width="6" stroke-dasharray="5,130"></path>
            </g>
        </g>
    </g>
</svg>