<?xml version="1.0" encoding="UTF-8"?>
<svg width="727px" height="845px" viewBox="0 0 727 845" version="1.1" xmlns="http://www.w3.org/2000/svg" xmlns:xlink="http://www.w3.org/1999/xlink">
    <!-- Generator: sketchtool 59.1 (101010) - https://sketch.com -->
    <title>BC787D35-77C7-4C82-AB11-81EFDDFB640E</title>
    <desc>Created with sketchtool.</desc>
    <g id="Page-1" stroke="none" stroke-width="1" fill="none" fill-rule="evenodd" stroke-linecap="round">
        <g id="landing_2" transform="translate(-368.000000, -1647.000000)">
            <g id="linesLeft" transform="translate(369.000000, 1648.000000)">
                <path d="M394.066569,14 C150.02219,108.102045 28,221.995537 28,355.680474 C28,556.207881 39.510901,829 692,829" id="Path-2" stroke="#F2F0F4" stroke-width="6" stroke-dasharray="30,50"></path>
                <path d="M427.066569,24 C183.02219,115.330942 61,225.870515 61,355.618718 C61,550.241023 72.510901,815 725,815" id="Path-2-Copy" stroke="#F2F0F4" stroke-width="2" stroke-dasharray="30,50"></path>
                <path d="M366.066569,0 C122.02219,97.334999 0,215.141396 0,353.41919 C0,560.835882 11.510901,843 664,843" id="Path-2-Copy-2" stroke="#F2F0F4" stroke-width="2" stroke-dasharray="30,50"></path>
                <path d="M394.066569,14 C150.02219,108.102045 28,221.995537 28,355.680474 C28,556.207881 39.510901,829 692,829" id="Path-2" stroke="#E1E0E2" stroke-width="6" stroke-dasharray="60,130"></path>
                <path d="M394.066569,14 C150.02219,108.102045 28,221.995537 28,355.680474 C28,556.207881 39.510901,829 692,829" id="Path-2" stroke="#875CE8" stroke-width="6" stroke-dasharray="5,130"></path>
            </g>
        </g>
    </g>
</svg>