<?xml version="1.0" encoding="UTF-8"?>
<svg width="27px" height="27px" viewBox="0 0 27 27" version="1.1" xmlns="http://www.w3.org/2000/svg" xmlns:xlink="http://www.w3.org/1999/xlink">
    <!-- Generator: sketchtool 59.1 (101010) - https://sketch.com -->
    <title>A75916EA-FC9C-42E6-AFA3-E5BF2990C762</title>
    <desc>Created with sketchtool.</desc>
    <g id="Page-1" stroke="none" stroke-width="1" fill="none" fill-rule="evenodd">
        <g id="landing_2" transform="translate(-1474.000000, -3647.000000)" fill="#FFFFFF">
            <path d="M1500.50471,3647.49384 C1500.04403,3647.03482 1499.35723,3646.87788 1498.74468,3647.09895 L1475.12016,3655.53664 C1474.48399,3655.76277 1474.04356,3656.34835 1474.00306,3657.02168 C1473.96256,3657.69669 1474.32705,3658.32952 1474.93285,3658.63328 L1482.67157,3662.50111 L1492.56181,3655.43708 L1485.49639,3665.32943 L1489.36406,3673.06848 C1489.65262,3673.64055 1490.23817,3674 1490.87434,3674 C1490.90978,3674 1490.94353,3673.99831 1490.97728,3673.99662 C1491.65227,3673.95612 1492.23782,3673.51736 1492.46562,3672.87947 L1500.90295,3649.25394 C1501.12064,3648.64136 1500.96539,3647.95453 1500.50471,3647.49384" id="icon/send"></path>
        </g>
    </g>
</svg>