<?xml version="1.0" encoding="UTF-8"?>
<svg width="176px" height="54px" viewBox="0 0 176 54" version="1.1" xmlns="http://www.w3.org/2000/svg" xmlns:xlink="http://www.w3.org/1999/xlink">
    <!-- Generator: sketchtool 59.1 (101010) - https://sketch.com -->
    <title>0EC142FB-A89F-4B82-839B-2B0BA58A7F45</title>
    <desc>Created with sketchtool.</desc>
    <g id="Page-1" stroke="none" stroke-width="1" fill="none" fill-rule="evenodd">
        <g id="landing_2" transform="translate(-80.000000, -52.000000)">
            <g id="tts_logo_final" transform="translate(80.000000, 52.000000)">
                <g id="Group">
                    <g transform="translate(1.458413, 1.278567)" fill="#9780FB" id="Shape">
                        <path d="M12.1604141,25.2693499 C8.71482139,21.8209246 5.30615592,18.321783 2.38322528,14.4630423 C1.35494453,13.1060218 0.315301556,11.6484282 0.298258229,9.91461667 L0.298258229,7.66963021 C0.32382322,3.61891245 4.0506308,0.180802356 8.34270875,0.109742159 C14.418655,0.0762177919 20.4946012,0.0762177919 26.5677068,0.109742159 C30.5615265,0.175931294 34.4246807,3.17392662 34.6064762,7.36991664 C34.6121573,7.46074761 34.6121573,7.48481639 34.6121573,7.57622043 C34.620679,8.69742427 34.7343012,9.85788313 34.4985351,10.8788004 C34.0809736,12.7063082 32.7856807,14.1939878 31.5528801,15.6974267 C28.8032233,19.0524422 25.8149599,22.1948502 22.7556826,25.2753671 C26.2893325,28.5828181 29.7945768,31.9461431 32.7004641,35.7008722 C33.6719338,36.9567465 34.5922734,38.3100422 34.6149979,39.9389826 L34.6149979,43.6240841 C34.5837518,47.6607618 30.8626253,51.1117659 26.5677068,51.1825395 C20.5230067,51.2163504 14.4783066,51.1831126 8.43076594,51.1831126 C4.35457014,51.1601899 0.394837084,48.0421373 0.298258229,43.7143421 C0.286896011,41.8825362 0.0198838819,39.942421 0.590835349,38.3822485 C1.20723569,36.6965745 2.46560136,35.3149122 3.68419927,33.926373 C6.34863944,30.8937072 9.22612122,28.0512993 12.1604141,25.2693499 Z M17.2677312,30.2699247 C14.0721073,33.3283785 10.8225129,36.3596117 8.05865329,39.7891258 C7.83140893,40.0739396 7.60700512,40.363338 7.39964463,40.6653438 C7.39964463,41.6398428 6.9451559,42.7292414 7.39964463,43.5891271 C7.55871569,43.878812 8.01888553,44.0129095 8.41940372,44.0194998 C14.4499011,44.0533107 20.4832389,44.1186402 26.5108957,44.0192132 C26.89153,44.008898 27.3460188,43.8931387 27.5136115,43.5891271 C27.5136115,43.5891271 27.5136115,40.6662034 27.5136115,40.6662034 C25.7893949,38.1510163 23.4913862,36.0249411 21.2814348,33.8243672 C20.0798802,32.6257995 18.8612823,31.4438506 17.6341627,30.2710708 L17.4495267,30.0962857 C17.389875,30.1541654 17.3302234,30.212045 17.2677312,30.2699247 Z M26.4597657,7.2724954 L8.45064982,7.2724954 C8.05297218,7.27478766 7.57859957,7.38424329 7.39964463,7.70114885 C7.39964463,7.70114885 7.39964463,9.23094881 7.39964463,9.23094881 C9.06420961,11.8318093 11.3593777,14.0830995 13.5494453,16.4074556 C14.7197537,17.650436 15.904265,18.8785167 17.1001385,20.0982879 L17.4608889,20.4661963 C20.7360483,17.1341035 24.0736999,13.8289447 26.8886895,10.1137571 C27.1528611,9.76447335 27.5136115,9.23180841 27.5136115,9.23180841 C27.5136115,8.72206611 27.7493775,8.15272494 27.5136115,7.70315458 C27.3431782,7.39541808 26.8744867,7.2724954 26.4597657,7.2724954 Z"></path>
                    </g>
                    <g transform="translate(1.742468, 1.278567)" fill="#875CE8" id="Shape">
                        <path d="M11.8763586,25.2693499 C8.43076594,21.8209246 5.02210046,18.321783 2.09916982,14.4630423 C1.07088907,13.1060218 0.0312461002,11.6484282 0.0142027728,9.91461667 L0.0142027728,7.66963021 C0.0397677639,3.61891245 3.76657535,0.180802356 8.05865329,0.10968255 C14.1345995,0.0762177919 32.5016253,14.1939878 31.2688246,15.6974267 C28.5191678,19.0524422 25.5309044,22.1948502 22.4716271,25.2753671 C26.005277,28.5828181 29.5105213,31.9461431 32.4164087,35.7008722 C33.3878783,36.9567465 34.308218,38.3100422 34.3309424,39.9389826 L34.3309424,43.6240841 C34.2996963,47.6607618 -0.267012129,37.9097555 0.951585778,36.5209298 C3.6131854,33.4885505 8.94206576,28.0512993 11.8763586,25.2693499 Z M16.9836757,30.2699247 C13.7880518,33.3283785 10.5384574,36.3596117 7.77459783,39.7891258 C7.54735347,40.0739396 7.32294966,40.363338 7.11558918,40.6653438 C7.11558918,41.6398428 6.66110045,42.7292414 7.11558918,43.5891271 C7.27466023,43.878812 7.73483007,44.0129095 8.13534826,44.0194998 C14.1658456,44.0533107 20.1991835,44.1186402 26.2268403,44.0192132 C26.6074746,44.008898 27.0619633,43.8931387 27.229556,43.5891271 C27.229556,43.5891271 27.229556,40.6662034 27.229556,40.6662034 C25.5053394,38.1510163 23.2073308,36.0249411 20.9973793,33.8243672 C19.7958247,32.6257995 18.5772268,31.4438506 17.3501073,30.2710708 L17.1654712,30.0962857 C17.1058196,30.1541654 17.0461679,30.212045 16.9836757,30.2699247 Z M26.1757103,7.2724954 L8.16659436,7.2724954 C7.76891673,7.27478766 7.29454411,7.38424329 7.11558918,7.70114885 C7.11558918,7.70114885 7.11558918,9.23094881 7.11558918,9.23094881 C8.78015415,11.8318093 11.0753222,14.0830995 13.2653898,16.4074556 C14.4356983,17.650436 15.6202095,18.8785167 16.816083,20.0982879 L17.1768334,20.4661963 C20.4519928,17.1341035 23.7896445,13.8289447 26.604634,10.1137571 C26.8688056,9.76447335 27.229556,9.23180841 27.229556,9.23180841 C27.229556,8.72206611 27.4653221,8.15272494 27.229556,7.70315458 C27.0591228,7.39541808 26.5904312,7.2724954 26.1757103,7.2724954 Z"></path>
                    </g>
                    <g transform="translate(0.322191, 0.132435)" fill="#280A50" id="Path">
                        <path d="M19.7333325,0.0224212113 C22.3949322,0.0252149086 25.0593723,0.0335243671 27.720972,0.0472779536 C28.2493151,0.0590258088 28.3089668,0.0716332631 28.5788194,0.100573101 C32.8084052,0.555014522 36.7596166,3.98023063 36.9414121,8.53008897 C36.9868609,9.91576281 37.0891209,11.3289438 36.7113272,12.6564515 C36.1006079,14.7945611 34.5383029,16.510321 33.0867795,18.248717 C30.7262787,21.0767983 28.1981851,23.7587476 25.616121,26.389121 C28.8571938,29.4409846 32.0414555,32.565341 34.7825906,36.1031646 C35.8762041,37.5151995 36.8817604,39.1217903 36.9470932,40.9719342 L36.9470932,41.0206448 C36.9783393,42.9129091 37.1430914,44.8527379 36.7255299,46.5828244 C35.7284953,50.7000179 31.4847068,53.5186435 27.1443394,53.5401335 C21.2729131,53.5690733 15.4327329,53.5395604 9.56130665,53.5375547 C4.90563773,53.483973 0.414720966,49.769072 0.241447138,45.0060331 C0.156230501,42.6464334 -0.0994194096,40.281103 1.07941073,38.0432799 C2.41163082,35.5149122 4.53352508,33.5544531 6.53043494,31.4845383 C7.53599125,30.4418445 8.55290978,29.4091794 9.56982832,28.3773739 C9.56982832,28.3773739 10.0669254,27.9833909 10.5270952,28.0260844 C11.3991455,28.1066002 11.9416914,29.3048814 11.2684799,30.081386 C8.87957356,32.5040229 6.42249386,34.8604707 4.29775905,37.537549 C2.93997397,39.2478648 2.52241245,41.2702151 2.61899131,44.1309611 C2.65023741,45.2341134 2.76385959,46.3421367 3.24391331,47.3080396 C4.40001902,49.6306765 6.976402,51.060763 9.49313334,51.1197888 C15.5378335,51.1894163 21.6223013,51.152167 27.6897259,51.1203619 C27.7607397,51.1189292 27.828913,51.1166369 27.8999269,51.1134851 C31.2262163,50.9461498 34.4871729,48.3068938 34.5525057,44.7997293 C34.5723896,42.9719349 34.8734883,41.0183526 34.1377847,39.4848277 C33.5611521,38.2856868 32.6663775,37.2699272 31.8028489,36.2335371 C29.1412492,33.0338225 26.1160586,30.1553115 23.0766653,27.3068864 C23.0766653,27.3068864 22.8465803,27.0710697 22.7585231,26.8103246 C22.4943516,26.0240779 23.2982285,25.3126164 23.9004261,24.702301 C26.8460812,21.7040191 29.6951574,18.6177716 32.3425542,15.3710656 C33.5071816,13.9426983 34.5723896,12.336394 34.5865923,10.506594 C34.5979546,8.60602022 34.4814918,6.70515996 33.2401695,5.15129121 C31.9051088,3.48280925 29.780374,2.51088914 27.6897259,2.46418425 C21.5995769,2.43266561 15.5378335,2.34527303 9.45620613,2.46504385 C9.38519227,2.46676305 9.31417841,2.46934184 9.24032399,2.47306677 C5.93391848,2.66017286 2.71841072,5.26189297 2.63319408,8.74642142 L2.63319408,8.78510338 C2.61046964,11.0249323 2.95417674,12.9699186 4.74656667,15.2295183 C9.06136905,20.6742193 14.3192355,25.3404101 19.341336,30.345856 C19.341336,30.345856 19.8412736,30.7727902 19.8611575,31.3263721 C19.8980847,32.2896962 18.7533412,33.0481492 17.8216393,32.2286647 C12.5098023,26.9220725 6.73779542,21.9750794 2.27244365,15.9484297 C1.21007624,14.5154779 0.278374347,12.8994315 0.238606583,11.1243592 C0.218722701,9.80200918 0.142027728,8.47192276 0.409039857,7.21318306 C1.26120623,3.21719311 5.1698093,0.18395422 9.34542451,0.0501432841 C9.34542451,0.0501432841 13.8136168,0.0263610408 17.4523672,0.0224212113 C18.2136358,0.0224212113 18.9720639,0.0224212113 19.7333325,0.0224212113 Z"></path>
                        <path d="M18.7277762,30.042704 C19.1424972,30.1094662 19.1595405,30.1435636 19.4095093,30.3641941 C20.3980223,31.3068878 21.3780136,32.2550257 22.3523238,33.211473 C22.3523238,33.211473 23.2357363,34.2137656 22.6505821,34.9894106 C22.2387017,35.5321042 21.3922164,35.6025913 20.8610327,35.1200697 C20.1366913,34.4077485 19.4095093,33.7008715 18.6794868,32.9974328 L18.5857485,32.9074615 C15.489544,35.8630499 12.3109635,38.7521627 9.73458048,42.201161 L9.72321826,43.9581817 C15.6258906,43.9931387 21.5370847,44.0524511 27.4511193,43.9599009 L27.4511193,42.2120493 C26.2325214,40.5478653 24.9003013,38.9725066 23.4430968,37.5080361 C23.4430968,37.5080361 23.1846063,37.2097552 23.1192736,36.9194972 C22.8977103,35.9235084 24.207206,34.9361155 25.1360673,35.7962877 C26.758024,37.4275204 28.2095473,39.1917044 29.6099407,41.091132 C29.6099407,41.091132 29.831504,41.442708 29.8457068,41.8123357 L29.8457068,44.7352593 C29.8116201,45.7005892 28.6896011,46.3372656 27.6783636,46.3733688 C21.630823,46.4682112 15.5804418,46.4097585 9.53858222,46.3739418 C8.59835866,46.3495865 7.45929628,45.9255176 7.3456741,44.8670645 C7.24341413,43.9246573 7.33431188,42.9472931 7.33715243,41.993138 C7.33715243,41.993138 7.8143656,40.7134814 8.66653197,39.6813893 C11.401986,36.3785228 14.5067121,33.475943 17.5801922,30.5384062 C17.5801922,30.5384062 18.142622,29.995426 18.7277762,30.042704 Z"></path>
                        <path d="M24.156076,25.0415561 C25.0991401,25.1209258 25.6615699,26.4060265 24.8860985,27.1438491 L18.8726445,32.6335359 C18.327258,33.1097538 17.4125995,32.9891234 17.0376463,32.3550257 C16.7564314,31.8768021 16.8586913,31.2298104 17.2648906,30.8415581 L23.2783446,25.3515849 C23.5254729,25.1369716 23.7101089,25.0240776 24.156076,25.0415561 Z"></path>
                        <path d="M27.6584798,7.21060426 C28.8657155,7.24470169 30.0757917,8.22579086 29.9366045,9.66074839 C29.8343446,10.6796599 29.7434468,10.9091729 29.4139425,11.382812 C29.1866981,11.7106058 28.9480915,12.0323825 28.7038038,12.348715 C28.5220084,12.5848182 28.3373723,12.8192022 28.1527363,13.0518671 C25.6644105,16.1704928 22.855102,19.0040182 20.0628369,21.8392627 L19.443596,22.4676297 L17.9920726,23.9091775 C17.651206,24.1762263 17.4722511,24.1994355 17.1910362,24.1919856 C16.2735371,24.1679168 15.566239,23.0017273 16.3786376,22.1243631 L17.7506255,20.7567408 C18.4664452,20.0298065 19.182265,19.3034452 19.8980847,18.5753647 C22.5710465,15.8447047 25.2695734,13.1131851 27.4539598,9.99312673 L27.5249737,9.62693749 L9.73458048,9.62693749 L9.73458048,9.92665106 L14.7339565,15.7487162 C15.304908,16.4682006 15.0947069,16.6335302 14.9242737,17.025794 C14.603291,17.7661954 13.5181992,17.9702069 12.9216827,17.3312382 L7.62972955,11.1681988 C7.45645572,10.9487145 7.35419576,10.806021 7.33715243,10.3762214 L7.33999299,8.84642146 C7.3769202,7.87994547 8.43076594,7.24470169 9.52153889,7.21089079 C15.566239,7.12665008 21.6137797,7.15387072 27.6584798,7.21060426 Z"></path>
                    </g>
                </g>
                <g id="Group" transform="translate(43.000000, 7.000000)" fill="#4F465A" fill-rule="nonzero">
                    <polygon id="Path" points="9.96371976 17.8444419 11.5962035 17.8444419 11.5962035 5.02620893 16.3916244 5.02620893 16.3916244 3.53381498 5.1682988 3.53381498 5.1682988 5.02620893 9.96371976 5.02620893"></polygon>
                    <path d="M19.4122183,17.8444419 L21.024296,17.8444419 L21.024296,12.2837412 L25.1055053,12.2837412 L29.2479328,17.8444419 L31.2273193,17.8444419 L26.8400193,11.9975286 C29.0846844,11.5886536 30.7171681,10.1984784 30.7171681,7.82700306 L30.7171681,7.78611555 C30.7171681,6.66170915 30.3090472,5.65996527 29.6152416,4.96487767 C28.7173756,4.06535255 27.3093583,3.53381498 25.5544383,3.53381498 L19.4122183,3.53381498 L19.4122183,17.8444419 Z M21.024296,10.8322347 L21.024296,5.02620893 L25.4320021,5.02620893 C27.7378853,5.02620893 29.0846844,6.08928407 29.0846844,7.84744681 L29.0846844,7.88833432 C29.0846844,9.72827206 27.5542309,10.8322347 25.411596,10.8322347 L21.024296,10.8322347 Z" id="Shape"></path>
                    <path d="M39.8782368,18.0693232 C43.4492949,18.0693232 45.8368024,15.9022854 45.8368024,11.7317598 L45.8368024,3.53381498 L44.2247247,3.53381498 L44.2247247,11.8544224 C44.2247247,14.9823165 42.5514289,16.5769292 39.9190489,16.5769292 C37.2050447,16.5769292 35.5521549,14.8392103 35.5521549,11.7522036 L35.5521549,3.53381498 L33.9400772,3.53381498 L33.9400772,11.8544224 C33.9400772,15.9022854 36.3479907,18.0693232 39.8782368,18.0693232 Z" id="Path"></path>
                    <path d="M54.5525179,18.0488794 C57.3889584,18.0488794 59.429563,16.4542667 59.429563,14.0010164 L59.429563,13.9601289 C59.429563,11.7726473 57.9603277,10.6073534 54.7769844,9.91226584 C51.6344532,9.237622 50.8998355,8.48120315 50.8998355,7.13191547 L50.8998355,7.09102796 C50.8998355,5.80307154 52.0833862,4.7808839 53.9403365,4.7808839 C55.4095718,4.7808839 56.7359649,5.25109021 58.0623579,6.33460911 L59.0010361,5.08754019 C57.5522067,3.92224628 56.0625653,3.32937745 53.9811486,3.32937745 C51.2671444,3.32937745 49.2877579,4.98532143 49.2877579,7.23413423 L49.2877579,7.27502173 C49.2877579,9.6260533 50.7978053,10.6891284 54.0831788,11.4046598 C57.0828677,12.0384161 57.7970793,12.794835 57.7970793,14.1236789 L57.7970793,14.1645664 C57.7970793,15.5751854 56.5319044,16.597373 54.613736,16.597373 C52.6343495,16.597373 51.2059262,15.9227291 49.7162848,14.5734415 L48.7163886,15.7591791 C50.4304965,17.2924606 52.2874467,18.0488794 54.5525179,18.0488794 Z" id="Path"></path>
                    <polygon id="Path" points="66.1829836 17.8444419 67.8154673 17.8444419 67.8154673 5.02620893 72.6108883 5.02620893 72.6108883 3.53381498 61.3875626 3.53381498 61.3875626 5.02620893 66.1829836 5.02620893"></polygon>
                    <polygon id="Path" points="75.6314821 17.8444419 86.058972 17.8444419 86.058972 16.3724917 77.2435598 16.3724917 77.2435598 11.3637723 85.0386696 11.3637723 85.0386696 9.89182209 77.2435598 9.89182209 77.2435598 5.00576518 85.9569417 5.00576518 85.9569417 3.53381498 75.6314821 3.53381498"></polygon>
                    <path d="M89.3026679,17.8444419 L94.2613372,17.8444419 C98.7506675,17.8444419 101.852387,14.7165477 101.852387,10.6891284 L101.852387,10.6482409 C101.852387,6.62082165 98.7506675,3.53381498 94.2613372,3.53381498 L89.3026679,3.53381498 L89.3026679,17.8444419 Z M94.2613372,5.02620893 C97.8732075,5.02620893 100.179091,7.52034677 100.179091,10.6891284 L100.179091,10.7300159 C100.179091,13.8987976 97.8732075,16.352048 94.2613372,16.352048 L90.9147456,16.352048 L90.9147456,5.02620893 L94.2613372,5.02620893 Z" id="Shape"></path>
                    <polygon id="Path" points="9.20869603 38.2883694 12.3512272 38.2883694 12.3512272 26.8807553 16.6977151 26.8807553 16.6977151 23.9777424 4.8622081 23.9777424 4.8622081 26.8807553 9.20869603 26.8807553"></polygon>
                    <rect id="Rectangle" x="19.2489699" y="23.9777424" width="3.14253118" height="14.3106269"></rect>
                    <polygon id="Path" points="25.9649708 38.2883694 29.0462838 38.2883694 29.0462838 29.0069056 33.0254629 35.0582564 33.1070871 35.0582564 37.1270783 28.9455744 37.1270783 38.2883694 40.2492034 38.2883694 40.2492034 23.9777424 36.8617997 23.9777424 33.1070871 30.0290932 29.3523745 23.9777424 25.9649708 23.9777424"></polygon>
                    <polygon id="Path" points="43.6758989 38.2883694 54.5523218 38.2883694 54.5523218 35.4875752 46.7980241 35.4875752 46.7980241 32.4823436 53.5320194 32.4823436 53.5320194 29.6815495 46.7980241 29.6815495 46.7980241 26.7785366 54.4502915 26.7785366 54.4502915 23.9777424 43.6758989 23.9777424"></polygon>
                    <path d="M68.5488359,38.4928069 C71.630149,38.4928069 73.7931899,36.8981942 73.7931899,34.0565125 L73.7931899,34.015625 C73.7931899,31.5214872 72.1607062,30.4788558 69.2630476,29.722437 C66.7939159,29.0886806 66.1817345,28.7820243 66.1817345,27.8416117 L66.1817345,27.8007242 C66.1817345,27.1056366 66.814322,26.5536553 68.0182787,26.5536553 C69.2222355,26.5536553 70.4670043,27.0851929 71.7321792,27.9642742 L73.3646629,25.5927989 C71.9158336,24.427505 70.1405076,23.7733049 68.0590908,23.7733049 C65.1410261,23.7733049 63.0596094,25.4905801 63.0596094,28.0869367 L63.0596094,28.1278242 C63.0596094,30.9695059 64.9165596,31.7668122 67.7938122,32.5027873 C70.1813197,33.1160999 70.6710648,33.524975 70.6710648,34.3222813 L70.6710648,34.3631688 C70.6710648,35.2013627 69.895635,35.7124565 68.6100541,35.7124565 C66.9775703,35.7124565 65.6307713,35.0378127 64.3451903,33.9747375 L62.4882401,36.2031066 C64.202348,37.736388 66.385795,38.4928069 68.5488359,38.4928069 Z" id="Path"></path>
                    <polygon id="Path" points="79.5525268 38.2883694 82.695058 38.2883694 82.695058 26.8807553 87.0415459 26.8807553 87.0415459 23.9777424 75.2060388 23.9777424 75.2060388 26.8807553 79.5525268 26.8807553"></polygon>
                    <path d="M86.3888206,38.2883694 L89.5925699,38.2883694 L90.8985569,35.0787002 L96.9387467,35.0787002 L98.2447337,38.2883694 L101.530107,38.2883694 L95.4082932,23.8755237 L92.5106346,23.8755237 L86.3888206,38.2883694 Z M92.0208895,32.2983498 L93.9186518,27.6576179 L95.8164141,32.2983498 L92.0208895,32.2983498 Z" id="Shape"></path>
                    <polygon id="Path" points="103.731465 38.2883694 106.812778 38.2883694 106.812778 29.0069056 110.791957 35.0582564 110.873581 35.0582564 114.893572 28.9455744 114.893572 38.2883694 118.015698 38.2883694 118.015698 23.9777424 114.628294 23.9777424 110.873581 30.0290932 107.118869 23.9777424 103.731465 23.9777424"></polygon>
                    <path d="M121.442393,38.2883694 L124.584924,38.2883694 L124.584924,33.9951813 L126.972432,33.9951813 C130.176181,33.9951813 132.747343,32.2779061 132.747343,28.9660181 L132.747343,28.9251306 C132.747343,26.001674 130.686332,23.9777424 127.278522,23.9777424 L121.442393,23.9777424 L121.442393,38.2883694 Z M124.584924,31.1943872 L124.584924,26.8194241 L127.013244,26.8194241 C128.584509,26.8194241 129.564,27.5758429 129.564,28.9864619 L129.564,29.0273494 C129.564,30.2539745 128.645727,31.1943872 127.074462,31.1943872 L124.584924,31.1943872 Z" id="Shape"></path>
                </g>
            </g>
        </g>
    </g>
</svg>